<svg width="50" height="50" viewBox="0 0 50 50" fill="none" xmlns="http://www.w3.org/2000/svg">
<rect width="50" height="50" rx="25" fill="white"/>
<mask id="path-2-outside-1_358_2373" maskUnits="userSpaceOnUse" x="4" y="16.5" width="40" height="17" fill="black">
<rect fill="white" x="4" y="16.5" width="40" height="17"/>
<path d="M11.2303 32.5V26.406L11.8683 28.166L5.18032 17.1H8.23832L13.6063 26.01H11.8903L17.3023 17.1H20.1183L13.4303 28.166L14.0903 26.406V32.5H11.2303ZM21.5344 32.72C20.5517 32.72 19.6424 32.5293 18.8064 32.148C17.9851 31.7667 17.3104 31.2167 16.7824 30.498L18.4104 28.54C18.8357 29.1267 19.2977 29.5667 19.7964 29.86C20.3097 30.1533 20.8671 30.3 21.4684 30.3C23.0671 30.3 23.8664 29.354 23.8664 27.462V19.498H18.3884V17.1H26.7264V27.308C26.7264 29.1267 26.2791 30.4833 25.3844 31.378C24.5044 32.2727 23.2211 32.72 21.5344 32.72ZM25.678 32.5V17.1H28.032L34.764 28.342H33.532L40.154 17.1H42.508L42.53 32.5H39.824L39.802 21.346H40.374L34.742 30.74H33.466L27.746 21.346H28.406V32.5H25.678Z"/>
</mask>
<path d="M11.2303 32.5V26.406L11.8683 28.166L5.18032 17.1H8.23832L13.6063 26.01H11.8903L17.3023 17.1H20.1183L13.4303 28.166L14.0903 26.406V32.5H11.2303ZM21.5344 32.72C20.5517 32.72 19.6424 32.5293 18.8064 32.148C17.9851 31.7667 17.3104 31.2167 16.7824 30.498L18.4104 28.54C18.8357 29.1267 19.2977 29.5667 19.7964 29.86C20.3097 30.1533 20.8671 30.3 21.4684 30.3C23.0671 30.3 23.8664 29.354 23.8664 27.462V19.498H18.3884V17.1H26.7264V27.308C26.7264 29.1267 26.2791 30.4833 25.3844 31.378C24.5044 32.2727 23.2211 32.72 21.5344 32.72ZM25.678 32.5V17.1H28.032L34.764 28.342H33.532L40.154 17.1H42.508L42.53 32.5H39.824L39.802 21.346H40.374L34.742 30.74H33.466L27.746 21.346H28.406V32.5H25.678Z" fill="#010725"/>
<path d="M11.2303 32.5H10.7303V33H11.2303V32.5ZM11.2303 26.406L11.7004 26.2356L10.7303 26.406H11.2303ZM11.8683 28.166L11.4404 28.4246L12.3384 27.9956L11.8683 28.166ZM5.18032 17.1V16.6H4.29391L4.7524 17.3586L5.18032 17.1ZM8.23832 17.1L8.6666 16.842L8.52082 16.6H8.23832V17.1ZM13.6063 26.01V26.51H14.4913L14.0346 25.752L13.6063 26.01ZM11.8903 26.01L11.463 25.7504L11.0016 26.51H11.8903V26.01ZM17.3023 17.1V16.6H17.021L16.875 16.8404L17.3023 17.1ZM20.1183 17.1L20.5462 17.3586L21.0047 16.6H20.1183V17.1ZM13.4303 28.166L12.9622 27.9904L13.8582 28.4246L13.4303 28.166ZM14.0903 26.406H14.5903L13.6222 26.2304L14.0903 26.406ZM14.0903 32.5V33H14.5903V32.5H14.0903ZM11.7303 32.5V26.406H10.7303V32.5H11.7303ZM10.7603 26.5764L11.3983 28.3364L12.3384 27.9956L11.7004 26.2356L10.7603 26.5764ZM12.2962 27.9074L5.60824 16.8414L4.7524 17.3586L11.4404 28.4246L12.2962 27.9074ZM5.18032 17.6H8.23832V16.6H5.18032V17.6ZM7.81004 17.358L13.178 26.268L14.0346 25.752L8.6666 16.842L7.81004 17.358ZM13.6063 25.51H11.8903V26.51H13.6063V25.51ZM12.3177 26.2696L17.7297 17.3596L16.875 16.8404L11.463 25.7504L12.3177 26.2696ZM17.3023 17.6H20.1183V16.6H17.3023V17.6ZM19.6904 16.8414L13.0024 27.9074L13.8582 28.4246L20.5462 17.3586L19.6904 16.8414ZM13.8985 28.3416L14.5585 26.5816L13.6222 26.2304L12.9622 27.9904L13.8985 28.3416ZM13.5903 26.406V32.5H14.5903V26.406H13.5903ZM14.0903 32H11.2303V33H14.0903V32ZM18.8064 32.148L18.5958 32.6015L18.5989 32.6029L18.8064 32.148ZM16.7824 30.498L16.3979 30.1783L16.148 30.479L16.3795 30.794L16.7824 30.498ZM18.4104 28.54L18.8152 28.2465L18.4374 27.7254L18.0259 28.2203L18.4104 28.54ZM19.7964 29.86L19.5429 30.291L19.5483 30.2941L19.7964 29.86ZM23.8664 19.498H24.3664V18.998H23.8664V19.498ZM18.3884 19.498H17.8884V19.998H18.3884V19.498ZM18.3884 17.1V16.6H17.8884V17.1H18.3884ZM26.7264 17.1H27.2264V16.6H26.7264V17.1ZM25.3844 31.378L25.0308 31.0244L25.0279 31.0274L25.3844 31.378ZM21.5344 32.22C20.6183 32.22 19.7803 32.0427 19.0139 31.6931L18.5989 32.6029C19.5045 33.016 20.4852 33.22 21.5344 33.22V32.22ZM19.017 31.6945C18.2708 31.348 17.6627 30.8517 17.1853 30.202L16.3795 30.794C16.9581 31.5816 17.6994 32.1853 18.5958 32.6015L19.017 31.6945ZM17.1669 30.8177L18.7949 28.8597L18.0259 28.2203L16.3979 30.1783L17.1669 30.8177ZM18.0056 28.8335C18.4615 29.4623 18.9719 29.9551 19.5429 30.291L20.0499 29.429C19.6236 29.1782 19.21 28.7911 18.8152 28.2465L18.0056 28.8335ZM19.5483 30.2941C20.1386 30.6314 20.7816 30.8 21.4684 30.8V29.8C20.9525 29.8 20.4809 29.6753 20.0445 29.4259L19.5483 30.2941ZM21.4684 30.8C22.3689 30.8 23.128 30.5296 23.6488 29.9132C24.156 29.313 24.3664 28.4664 24.3664 27.462H23.3664C23.3664 28.3496 23.1771 28.922 22.885 29.2678C22.6065 29.5974 22.1665 29.8 21.4684 29.8V30.8ZM24.3664 27.462V19.498H23.3664V27.462H24.3664ZM23.8664 18.998H18.3884V19.998H23.8664V18.998ZM18.8884 19.498V17.1H17.8884V19.498H18.8884ZM18.3884 17.6H26.7264V16.6H18.3884V17.6ZM26.2264 17.1V27.308H27.2264V17.1H26.2264ZM26.2264 27.308C26.2264 29.0523 25.7973 30.258 25.0308 31.0244L25.738 31.7316C26.7608 30.7087 27.2264 29.201 27.2264 27.308H26.2264ZM25.0279 31.0274C24.2708 31.7972 23.1347 32.22 21.5344 32.22V33.22C23.3075 33.22 24.738 32.7482 25.7409 31.7286L25.0279 31.0274ZM25.678 32.5H25.178V33H25.678V32.5ZM25.678 17.1V16.6H25.178V17.1H25.678ZM28.032 17.1L28.4609 16.8431L28.3153 16.6H28.032V17.1ZM34.764 28.342V28.842H35.6462L35.1929 28.0851L34.764 28.342ZM33.532 28.342L33.1011 28.0882L32.6571 28.842H33.532V28.342ZM40.154 17.1V16.6H39.8682L39.7231 16.8462L40.154 17.1ZM42.508 17.1L43.008 17.0993L43.0072 16.6H42.508V17.1ZM42.53 32.5V33H43.0307L43.03 32.4993L42.53 32.5ZM39.824 32.5L39.324 32.501L39.3249 33H39.824V32.5ZM39.802 21.346V20.846H39.301L39.302 21.347L39.802 21.346ZM40.374 21.346L40.8028 21.6031L41.2567 20.846H40.374V21.346ZM34.742 30.74V31.24H35.0252L35.1708 30.9971L34.742 30.74ZM33.466 30.74L33.0389 31L33.185 31.24H33.466V30.74ZM27.746 21.346V20.846H26.8561L27.3189 21.606L27.746 21.346ZM28.406 21.346H28.906V20.846H28.406V21.346ZM28.406 32.5V33H28.906V32.5H28.406ZM26.178 32.5V17.1H25.178V32.5H26.178ZM25.678 17.6H28.032V16.6H25.678V17.6ZM27.603 17.3569L34.335 28.5989L35.1929 28.0851L28.4609 16.8431L27.603 17.3569ZM34.764 27.842H33.532V28.842H34.764V27.842ZM33.9628 28.5958L40.5848 17.3538L39.7231 16.8462L33.1011 28.0882L33.9628 28.5958ZM40.154 17.6H42.508V16.6H40.154V17.6ZM42.008 17.1007L42.03 32.5007L43.03 32.4993L43.008 17.0993L42.008 17.1007ZM42.53 32H39.824V33H42.53V32ZM40.324 32.499L40.302 21.345L39.302 21.347L39.324 32.501L40.324 32.499ZM39.802 21.846H40.374V20.846H39.802V21.846ZM39.9451 21.0889L34.3131 30.4829L35.1708 30.9971L40.8028 21.6031L39.9451 21.0889ZM34.742 30.24H33.466V31.24H34.742V30.24ZM33.893 30.48L28.173 21.086L27.3189 21.606L33.0389 31L33.893 30.48ZM27.746 21.846H28.406V20.846H27.746V21.846ZM27.906 21.346V32.5H28.906V21.346H27.906ZM28.406 32H25.678V33H28.406V32Z" fill="#D3D3D3" mask="url(#path-2-outside-1_358_2373)"/>
</svg>
