<svg width="46" height="24" viewBox="0 0 46 24" fill="none" xmlns="http://www.w3.org/2000/svg">
<mask id="path-1-outside-1_358_2373" maskUnits="userSpaceOnUse" x="4" y="4" width="36" height="16" fill="black">
<rect fill="white" x="4" y="4" width="36" height="16"/>
<path d="M10.4821 19V13.46L11.0621 15.06L4.98211 5H7.76211L12.6421 13.1H11.0821L16.0021 5H18.5621L12.4821 15.06L13.0821 13.46V19H10.4821ZM19.8495 19.2C18.9561 19.2 18.1295 19.0267 17.3695 18.68C16.6228 18.3333 16.0095 17.8333 15.5295 17.18L17.0095 15.4C17.3961 15.9333 17.8161 16.3333 18.2695 16.6C18.7361 16.8667 19.2428 17 19.7895 17C21.2428 17 21.9695 16.14 21.9695 14.42V7.18H16.9895V5H24.5695V14.28C24.5695 15.9333 24.1628 17.1667 23.3495 17.98C22.5495 18.7933 21.3828 19.2 19.8495 19.2ZM23.6163 19V5H25.7563L31.8763 15.22H30.7563L36.7763 5H38.9163L38.9363 19H36.4763L36.4563 8.86H36.9763L31.8563 17.4H30.6963L25.4963 8.86H26.0963V19H23.6163Z"/>
</mask>
<path d="M10.4821 19V13.46L11.0621 15.06L4.98211 5H7.76211L12.6421 13.1H11.0821L16.0021 5H18.5621L12.4821 15.06L13.0821 13.46V19H10.4821ZM19.8495 19.2C18.9561 19.2 18.1295 19.0267 17.3695 18.68C16.6228 18.3333 16.0095 17.8333 15.5295 17.18L17.0095 15.4C17.3961 15.9333 17.8161 16.3333 18.2695 16.6C18.7361 16.8667 19.2428 17 19.7895 17C21.2428 17 21.9695 16.14 21.9695 14.42V7.18H16.9895V5H24.5695V14.28C24.5695 15.9333 24.1628 17.1667 23.3495 17.98C22.5495 18.7933 21.3828 19.2 19.8495 19.2ZM23.6163 19V5H25.7563L31.8763 15.22H30.7563L36.7763 5H38.9163L38.9363 19H36.4763L36.4563 8.86H36.9763L31.8563 17.4H30.6963L25.4963 8.86H26.0963V19H23.6163Z" fill="#010725"/>
<path d="M10.4821 19H9.98211V19.5H10.4821V19ZM10.4821 13.46L10.9522 13.2896L9.98211 13.46H10.4821ZM11.0621 15.06L10.6342 15.3186L11.5322 14.8896L11.0621 15.06ZM4.98211 5V4.5H4.0957L4.55419 5.25862L4.98211 5ZM7.76211 5L8.19039 4.74197L8.04461 4.5H7.76211V5ZM12.6421 13.1V13.6H13.5271L13.0704 12.842L12.6421 13.1ZM11.0821 13.1L10.6548 12.8404L10.1934 13.6H11.0821V13.1ZM16.0021 5V4.5H15.7208L15.5748 4.74043L16.0021 5ZM18.5621 5L18.99 5.25862L19.4485 4.5H18.5621V5ZM12.4821 15.06L12.0139 14.8844L12.91 15.3186L12.4821 15.06ZM13.0821 13.46H13.5821L12.6139 13.2844L13.0821 13.46ZM13.0821 19V19.5H13.5821V19H13.0821ZM10.9821 19V13.46H9.98211V19H10.9821ZM10.012 13.6304L10.592 15.2304L11.5322 14.8896L10.9522 13.2896L10.012 13.6304ZM11.49 14.8014L5.41003 4.74138L4.55419 5.25862L10.6342 15.3186L11.49 14.8014ZM4.98211 5.5H7.76211V4.5H4.98211V5.5ZM7.33383 5.25802L12.2138 13.358L13.0704 12.842L8.19039 4.74197L7.33383 5.25802ZM12.6421 12.6H11.0821V13.6H12.6421V12.6ZM11.5095 13.3596L16.4295 5.25957L15.5748 4.74043L10.6548 12.8404L11.5095 13.3596ZM16.0021 5.5H18.5621V4.5H16.0021V5.5ZM18.1342 4.74138L12.0542 14.8014L12.91 15.3186L18.99 5.25862L18.1342 4.74138ZM12.9503 15.2356L13.5503 13.6356L12.6139 13.2844L12.0139 14.8844L12.9503 15.2356ZM12.5821 13.46V19H13.5821V13.46H12.5821ZM13.0821 18.5H10.4821V19.5H13.0821V18.5ZM17.3695 18.68L17.1589 19.1335L17.162 19.1349L17.3695 18.68ZM15.5295 17.18L15.145 16.8603L14.895 17.161L15.1265 17.476L15.5295 17.18ZM17.0095 15.4L17.4143 15.1065L17.0365 14.5854L16.625 15.0803L17.0095 15.4ZM18.2695 16.6L18.0159 17.031L18.0214 17.0341L18.2695 16.6ZM21.9695 7.18H22.4695V6.68H21.9695V7.18ZM16.9895 7.18H16.4895V7.68H16.9895V7.18ZM16.9895 5V4.5H16.4895V5H16.9895ZM24.5695 5H25.0695V4.5H24.5695V5ZM23.3495 17.98L22.9959 17.6264L22.993 17.6294L23.3495 17.98ZM19.8495 18.7C19.0227 18.7 18.2674 18.54 17.577 18.2251L17.162 19.1349C17.9915 19.5133 18.8896 19.7 19.8495 19.7V18.7ZM17.58 18.2265C16.9085 17.9147 16.3617 17.4684 15.9324 16.884L15.1265 17.476C15.6572 18.1983 16.3371 18.752 17.1589 19.1335L17.58 18.2265ZM15.9139 17.4997L17.3939 15.7197L16.625 15.0803L15.145 16.8603L15.9139 17.4997ZM16.6046 15.6935C17.0219 16.2689 17.4903 16.7218 18.0159 17.031L18.523 16.169C18.142 15.9449 17.7704 15.5977 17.4143 15.1065L16.6046 15.6935ZM18.0214 17.0341C18.5649 17.3447 19.1573 17.5 19.7895 17.5V16.5C19.3282 16.5 18.9073 16.3886 18.5175 16.1659L18.0214 17.0341ZM19.7895 17.5C20.6173 17.5 21.3219 17.2511 21.8064 16.6777C22.2772 16.1205 22.4695 15.3384 22.4695 14.42H21.4695C21.4695 15.2216 21.2984 15.7295 21.0425 16.0323C20.8003 16.3189 20.4149 16.5 19.7895 16.5V17.5ZM22.4695 14.42V7.18H21.4695V14.42H22.4695ZM21.9695 6.68H16.9895V7.68H21.9695V6.68ZM17.4895 7.18V5H16.4895V7.18H17.4895ZM16.9895 5.5H24.5695V4.5H16.9895V5.5ZM24.0695 5V14.28H25.0695V5H24.0695ZM24.0695 14.28C24.0695 15.859 23.681 16.9413 22.9959 17.6264L23.703 18.3336C24.6445 17.392 25.0695 16.0077 25.0695 14.28H24.0695ZM22.993 17.6294C22.3158 18.3178 21.2964 18.7 19.8495 18.7V19.7C21.4692 19.7 22.7831 19.2688 23.7059 18.3306L22.993 17.6294ZM23.6163 19H23.1163V19.5H23.6163V19ZM23.6163 5V4.5H23.1163V5H23.6163ZM25.7563 5L26.1853 4.74312L26.0397 4.5H25.7563V5ZM31.8763 15.22V15.72H32.7585L32.3053 14.9631L31.8763 15.22ZM30.7563 15.22L30.3255 14.9662L29.8815 15.72H30.7563V15.22ZM36.7763 5V4.5H36.4906L36.3455 4.74623L36.7763 5ZM38.9163 5L39.4163 4.99928L39.4156 4.5H38.9163V5ZM38.9363 19V19.5H39.437L39.4363 18.9993L38.9363 19ZM36.4763 19L35.9763 19.001L35.9773 19.5H36.4763V19ZM36.4563 8.86V8.36H35.9553L35.9563 8.86099L36.4563 8.86ZM36.9763 8.86L37.4052 9.1171L37.8591 8.36H36.9763V8.86ZM31.8563 17.4V17.9H32.1395L32.2852 17.6571L31.8563 17.4ZM30.6963 17.4L30.2693 17.66L30.4154 17.9H30.6963V17.4ZM25.4963 8.86V8.36H24.6065L25.0693 9.12004L25.4963 8.86ZM26.0963 8.86H26.5963V8.36H26.0963V8.86ZM26.0963 19V19.5H26.5963V19H26.0963ZM24.1163 19V5H23.1163V19H24.1163ZM23.6163 5.5H25.7563V4.5H23.6163V5.5ZM25.3274 5.25688L31.4474 15.4769L32.3053 14.9631L26.1853 4.74312L25.3274 5.25688ZM31.8763 14.72H30.7563V15.72H31.8763V14.72ZM31.1871 15.4738L37.2071 5.25377L36.3455 4.74623L30.3255 14.9662L31.1871 15.4738ZM36.7763 5.5H38.9163V4.5H36.7763V5.5ZM38.4163 5.00071L38.4363 19.0007L39.4363 18.9993L39.4163 4.99928L38.4163 5.00071ZM38.9363 18.5H36.4763V19.5H38.9363V18.5ZM36.9763 18.999L36.9563 8.85901L35.9563 8.86099L35.9763 19.001L36.9763 18.999ZM36.4563 9.36H36.9763V8.36H36.4563V9.36ZM36.5475 8.6029L31.4275 17.1429L32.2852 17.6571L37.4052 9.1171L36.5475 8.6029ZM31.8563 16.9H30.6963V17.9H31.8563V16.9ZM31.1234 17.14L25.9234 8.59996L25.0693 9.12004L30.2693 17.66L31.1234 17.14ZM25.4963 9.36H26.0963V8.36H25.4963V9.36ZM25.5963 8.86V19H26.5963V8.86H25.5963ZM26.0963 18.5H23.6163V19.5H26.0963V18.5Z" fill="#D3D3D3" mask="url(#path-1-outside-1_358_2373)"/>
</svg>
