<svg width="16" height="16" viewBox="0 0 16 16" fill="none" xmlns="http://www.w3.org/2000/svg">
    <path
        d="M12.0002 0.75C12.0002 0.551088 12.0792 0.360322 12.2198 0.21967C12.3605 0.0790175 12.5512 0 12.7502 0H15.2502C15.4491 0 15.6398 0.0790175 15.7805 0.21967C15.9211 0.360322 16.0002 0.551088 16.0002 0.75V3.25C16.0002 3.44891 15.9211 3.63968 15.7805 3.78033C15.6398 3.92098 15.4491 4 15.2502 4C15.0512 4 14.8605 3.92098 14.7198 3.78033C14.5792 3.63968 14.5002 3.44891 14.5002 3.25V2.56L10.0302 7.03C9.88953 7.17045 9.6989 7.24934 9.50015 7.24934C9.3014 7.24934 9.11078 7.17045 8.97015 7.03L6.50015 4.56L2.28015 8.78C2.21149 8.85369 2.12869 8.91279 2.03669 8.95378C1.94469 8.99477 1.84538 9.01682 1.74468 9.01859C1.64397 9.02037 1.54394 9.00184 1.45056 8.96412C1.35717 8.9264 1.27233 8.87026 1.20112 8.79904C1.1299 8.72782 1.07375 8.64299 1.03603 8.5496C0.99831 8.45621 0.979785 8.35618 0.981562 8.25548C0.983339 8.15478 1.00538 8.05546 1.04637 7.96346C1.08736 7.87146 1.14647 7.78866 1.22015 7.72L5.97015 2.97C6.11078 2.82955 6.3014 2.75066 6.50015 2.75066C6.6989 2.75066 6.88953 2.82955 7.03015 2.97L9.50015 5.44L13.4402 1.5H12.7502C12.5512 1.5 12.3605 1.42098 12.2198 1.28033C12.0792 1.13968 12.0002 0.948912 12.0002 0.75ZM1.75015 12C1.94907 12 2.13983 12.079 2.28048 12.2197C2.42114 12.3603 2.50015 12.5511 2.50015 12.75V15.25C2.50015 15.4489 2.42114 15.6397 2.28048 15.7803C2.13983 15.921 1.94907 16 1.75015 16C1.55124 16 1.36048 15.921 1.21982 15.7803C1.07917 15.6397 1.00015 15.4489 1.00015 15.25V12.75C1.00015 12.5511 1.07917 12.3603 1.21982 12.2197C1.36048 12.079 1.55124 12 1.75015 12ZM6.50015 9.75C6.50015 9.55109 6.42114 9.36032 6.28048 9.21967C6.13983 9.07902 5.94907 9 5.75015 9C5.55124 9 5.36048 9.07902 5.21982 9.21967C5.07917 9.36032 5.00015 9.55109 5.00015 9.75V15.25C5.00015 15.4489 5.07917 15.6397 5.21982 15.7803C5.36048 15.921 5.55124 16 5.75015 16C5.94907 16 6.13983 15.921 6.28048 15.7803C6.42114 15.6397 6.50015 15.4489 6.50015 15.25V9.75ZM9.75015 11C9.94907 11 10.1398 11.079 10.2805 11.2197C10.4211 11.3603 10.5002 11.5511 10.5002 11.75V15.25C10.5002 15.4489 10.4211 15.6397 10.2805 15.7803C10.1398 15.921 9.94907 16 9.75015 16C9.55124 16 9.36048 15.921 9.21982 15.7803C9.07917 15.6397 9.00015 15.4489 9.00015 15.25V11.75C9.00015 11.5511 9.07917 11.3603 9.21982 11.2197C9.36048 11.079 9.55124 11 9.75015 11ZM14.5002 7.75C14.5002 7.55109 14.4211 7.36032 14.2805 7.21967C14.1398 7.07902 13.9491 7 13.7502 7C13.5512 7 13.3605 7.07902 13.2198 7.21967C13.0792 7.36032 13.0002 7.55109 13.0002 7.75V15.25C13.0002 15.4489 13.0792 15.6397 13.2198 15.7803C13.3605 15.921 13.5512 16 13.7502 16C13.9491 16 14.1398 15.921 14.2805 15.7803C14.4211 15.6397 14.5002 15.4489 14.5002 15.25V7.75Z"
        fill="url(#paint0_linear_350_2371)" />
    <defs>
        <linearGradient id="paint0_linear_350_2371" x1="16" y1="4.00321e-07" x2="1" y2="16"
            gradientUnits="userSpaceOnUse">
            <stop stop-color="#FFDB6E" />
            <stop offset="1" stop-color="#FFBC5E" />
        </linearGradient>
    </defs>
</svg>
    