<svg width="32" height="32" viewBox="0 0 32 32" fill="none" xmlns="http://www.w3.org/2000/svg">
<path d="M0.444458 27.5441C0.444458 29.7598 2.24052 31.5556 4.45597 31.5556H27.5439C29.7598 31.5556 31.5556 29.7595 31.5556 27.5441V4.45609C31.5556 2.24027 29.7595 0.444458 27.5441 0.444458H4.45609C2.24027 0.444458 0.444458 2.24052 0.444458 4.45597V27.5439V27.5441Z" fill="#563D7C"/>
<path d="M13.3456 14.206V9.80027H17.2237C17.5931 9.80027 17.9492 9.83101 18.2922 9.89263C18.6351 9.95412 18.9386 10.064 19.2024 10.2223C19.4661 10.3807 19.6772 10.6005 19.8356 10.8819C19.9938 11.1633 20.073 11.5239 20.073 11.9635C20.073 12.755 19.8356 13.3266 19.3606 13.6783C18.8858 14.0302 18.279 14.206 17.5403 14.206H13.3456ZM9.20355 6.5816V25.4184H18.3318C19.176 25.4184 19.9983 25.3129 20.7985 25.1018C21.5988 24.8907 22.3111 24.5654 22.9355 24.1257C23.5598 23.686 24.0567 23.1187 24.426 22.4241C24.7955 21.7293 24.9801 20.9071 24.9801 19.9573C24.9801 18.7789 24.6943 17.772 24.1227 16.9366C23.551 16.1011 22.6848 15.5163 21.5239 15.1821C22.3682 14.7777 23.0059 14.2588 23.4368 13.6256C23.8676 12.9924 24.0831 12.201 24.0831 11.2512C24.0831 10.3718 23.938 9.63317 23.6478 9.03513C23.3576 8.43721 22.9486 7.95791 22.4209 7.59733C21.8934 7.23676 21.2602 6.9773 20.5215 6.81907C19.7828 6.66072 18.9649 6.5816 18.0679 6.5816H9.20355ZM13.3456 22.1997V17.0289H17.8568C18.7538 17.0289 19.475 17.2355 20.0203 17.6489C20.5655 18.0622 20.8382 18.7525 20.8382 19.7198C20.8382 20.2124 20.7546 20.6168 20.5875 20.9334C20.4204 21.25 20.1961 21.5007 19.9147 21.6853C19.6333 21.87 19.3079 22.0019 18.9386 22.0811C18.5691 22.1601 18.1823 22.1997 17.7777 22.1997H13.3456Z" fill="#293241"/>
</svg>
