<svg width="48" height="48" viewBox="0 0 48 48" fill="none" xmlns="http://www.w3.org/2000/svg">
<path d="M44.3125 0.171872H3.6875C2.76575 0.162492 1.87792 0.519155 1.21882 1.1636C0.55973 1.80805 0.183208 2.68764 0.171875 3.60937V44.3984C0.185257 45.3188 0.56268 46.1964 1.22155 46.8392C1.88042 47.4819 2.76708 47.8375 3.6875 47.8281H44.3125C45.2343 47.8354 46.1215 47.4776 46.7803 46.8327C47.439 46.1879 47.8158 45.3085 47.8281 44.3867V3.59765C47.8117 2.67863 47.4332 1.80323 46.7749 1.16174C46.1165 0.520249 45.2316 0.16452 44.3125 0.171872Z" fill="#0076B2"/>
<path d="M7.22656 18.0352H14.3008V40.7969H7.22656V18.0352ZM10.7656 6.70703C11.577 6.70703 12.3702 6.94768 13.0447 7.39854C13.7193 7.8494 14.245 8.49021 14.5553 9.2399C14.8657 9.98959 14.9467 10.8145 14.7881 11.6102C14.6295 12.4059 14.2385 13.1368 13.6645 13.7102C13.0905 14.2837 12.3593 14.674 11.5634 14.8318C10.7675 14.9896 9.94271 14.9079 9.19332 14.5968C8.44392 14.2858 7.80362 13.7595 7.3534 13.0845C6.90319 12.4094 6.66329 11.6161 6.66406 10.8047C6.6651 9.71756 7.09768 8.67532 7.86676 7.90697C8.63584 7.13862 9.6785 6.70703 10.7656 6.70703ZM18.7383 18.0352H25.5195V21.1602H25.6133C26.5586 19.3711 28.8633 17.4844 32.3047 17.4844C39.4688 17.4687 40.7969 22.1836 40.7969 28.2969V40.7969H33.7227V29.7227C33.7227 27.0859 33.6758 23.6914 30.0469 23.6914C26.418 23.6914 25.8008 26.5664 25.8008 29.5508V40.7969H18.7383V18.0352Z" fill="white"/>
</svg>
