<svg width="60" height="60" viewBox="0 0 60 60" fill="none" xmlns="http://www.w3.org/2000/svg">
<path fill-rule="evenodd" clip-rule="evenodd" d="M32.7347 9.23077H17.3077C16.3897 9.23077 15.5092 9.59547 14.8601 10.2446C14.2109 10.8938 13.8462 11.7743 13.8462 12.6923V47.3077C13.8462 48.2258 14.2109 49.1062 14.8601 49.7554C15.5092 50.4045 16.3897 50.7692 17.3077 50.7692H42.6923C43.6104 50.7692 44.4909 50.4045 45.14 49.7554C45.7892 49.1062 46.1539 48.2258 46.1539 47.3077V23.5431C46.1537 22.6765 45.8284 21.8415 45.2423 21.2031L35.287 10.3523C34.9625 9.99865 34.5681 9.71631 34.1287 9.52324C33.6893 9.33016 33.2146 9.23057 32.7347 9.23077ZM16.1539 12.6923C16.1539 12.3863 16.2754 12.0928 16.4918 11.8764C16.7082 11.66 17.0017 11.5385 17.3077 11.5385H32.7347C32.8948 11.5383 33.0532 11.5714 33.1998 11.6358C33.3464 11.7002 33.478 11.7943 33.5862 11.9123L43.5416 22.7631C43.7372 22.9758 43.8459 23.2541 43.8462 23.5431V47.3077C43.8462 47.6137 43.7246 47.9072 43.5082 48.1236C43.2919 48.34 42.9984 48.4615 42.6923 48.4615H17.3077C17.0017 48.4615 16.7082 48.34 16.4918 48.1236C16.2754 47.9072 16.1539 47.6137 16.1539 47.3077V12.6923Z" fill="white"/>
<path d="M33.4614 11.7692V22.6154H44.3076" stroke="white" stroke-linecap="round" stroke-linejoin="round"/>
<path d="M25.6938 21.0762C26.0234 21.0863 26.3516 21.0301 26.659 20.9109C26.9664 20.7918 27.2468 20.6121 27.4835 20.3826C27.7201 20.153 27.9083 19.8783 28.0368 19.5747C28.1653 19.2711 28.2315 18.9447 28.2315 18.615C28.2315 18.2853 28.1653 17.959 28.0368 17.6553C27.9083 17.3517 27.7201 17.077 27.4835 16.8475C27.2468 16.6179 26.9664 16.4383 26.659 16.3191C26.3516 16.2 26.0234 16.1438 25.6938 16.1539C25.0541 16.1735 24.4472 16.4413 24.0016 16.9008C23.5561 17.3602 23.3069 17.975 23.3069 18.615C23.3069 19.255 23.5561 19.8699 24.0016 20.3293C24.4472 20.7887 25.0541 21.0566 25.6938 21.0762Z" fill="white"/>
<path fill-rule="evenodd" clip-rule="evenodd" d="M30.6139 26.4092C30.6139 23.7923 28.4101 21.8977 25.6916 21.8977C22.9731 21.8977 20.7693 23.79 20.7693 26.4092V27.6415C20.7699 27.859 20.8567 28.0674 21.0107 28.221C21.1647 28.3745 21.3733 28.4608 21.5908 28.4608H29.7947C30.0118 28.4602 30.2198 28.3737 30.3733 28.2202C30.5268 28.0667 30.6133 27.8586 30.6139 27.6415V26.4092Z" fill="white"/>
<path fill-rule="evenodd" clip-rule="evenodd" d="M30 56.5385C44.6561 56.5385 56.5384 44.6562 56.5384 30C56.5384 15.3439 44.6561 3.46156 30 3.46156C15.3438 3.46156 3.4615 15.3439 3.4615 30C3.4615 44.6562 15.3438 56.5385 30 56.5385ZM30 58.8462C45.9323 58.8462 58.8461 45.9323 58.8461 30C58.8461 14.0677 45.9323 1.15387 30 1.15387C14.0677 1.15387 1.15381 14.0677 1.15381 30C1.15381 45.9323 14.0677 58.8462 30 58.8462Z" fill="white"/>
<path d="M24.8161 45.168C24.0601 45.168 23.3554 45.0467 22.7021 44.804C22.0581 44.552 21.4981 44.1973 21.0221 43.74C20.5461 43.2827 20.1727 42.746 19.9021 42.13C19.6407 41.514 19.5101 40.8373 19.5101 40.1C19.5101 39.3627 19.6407 38.686 19.9021 38.07C20.1727 37.454 20.5461 36.9173 21.0221 36.46C21.5074 36.0027 22.0721 35.6527 22.7161 35.41C23.3601 35.158 24.0647 35.032 24.8301 35.032C25.6794 35.032 26.4447 35.1813 27.1261 35.48C27.8167 35.7693 28.3954 36.1987 28.8621 36.768L27.4061 38.112C27.0701 37.7293 26.6967 37.4447 26.2861 37.258C25.8754 37.062 25.4274 36.964 24.9421 36.964C24.4847 36.964 24.0647 37.0387 23.6821 37.188C23.2994 37.3373 22.9681 37.552 22.6881 37.832C22.4081 38.112 22.1887 38.4433 22.0301 38.826C21.8807 39.2087 21.8061 39.6333 21.8061 40.1C21.8061 40.5667 21.8807 40.9913 22.0301 41.374C22.1887 41.7567 22.4081 42.088 22.6881 42.368C22.9681 42.648 23.2994 42.8627 23.6821 43.012C24.0647 43.1613 24.4847 43.236 24.9421 43.236C25.4274 43.236 25.8754 43.1427 26.2861 42.956C26.6967 42.76 27.0701 42.466 27.4061 42.074L28.8621 43.418C28.3954 43.9873 27.8167 44.4213 27.1261 44.72C26.4447 45.0187 25.6747 45.168 24.8161 45.168ZM34.6926 45L30.4646 35.2H32.9146L36.6106 43.88H35.1686L38.9206 35.2H41.1746L36.9326 45H34.6926Z" fill="white"/>
</svg>
