<svg width="30" height="30" viewBox="0 0 30 30" fill="none" xmlns="http://www.w3.org/2000/svg">
<path d="M15.9809 21.9761C16.112 22.1067 16.216 22.262 16.287 22.4329C16.3579 22.6038 16.3945 22.7871 16.3945 22.9722C16.3945 23.1572 16.3579 23.3405 16.287 23.5114C16.216 23.6824 16.112 23.8376 15.9809 23.9683L15.2848 24.6644C13.9657 25.9834 12.1767 26.7244 10.3113 26.7244C8.44593 26.7244 6.65694 25.9834 5.3379 24.6644C4.01886 23.3453 3.27783 21.5563 3.27783 19.6909C3.27783 17.8255 4.01886 16.0365 5.3379 14.7175L8.16446 11.8921C9.43182 10.6216 11.137 9.88376 12.9307 9.82972C14.7245 9.77569 16.471 10.4095 17.8125 11.6015C17.951 11.7246 18.0639 11.8738 18.1448 12.0405C18.2256 12.2073 18.2728 12.3883 18.2837 12.5733C18.2946 12.7583 18.2689 12.9436 18.2082 13.1187C18.1474 13.2937 18.0528 13.4551 17.9297 13.5936C17.8066 13.7322 17.6574 13.8451 17.4906 13.9259C17.3239 14.0067 17.1429 14.054 16.9579 14.0648C16.7729 14.0757 16.5876 14.0501 16.4125 13.9893C16.2374 13.9286 16.076 13.834 15.9375 13.7108C15.133 12.9964 14.086 12.6163 13.0105 12.6483C11.9351 12.6803 10.9125 13.122 10.152 13.8831L7.32774 16.705C6.53644 17.4963 6.0919 18.5695 6.0919 19.6886C6.0919 20.8076 6.53644 21.8809 7.32774 22.6722C8.11904 23.4635 9.19227 23.908 10.3113 23.908C11.4304 23.908 12.5036 23.4635 13.2949 22.6722L13.991 21.9761C14.1216 21.8453 14.2767 21.7416 14.4474 21.6708C14.6182 21.6001 14.8011 21.5636 14.9859 21.5636C15.1707 21.5636 15.3537 21.6001 15.5245 21.6708C15.6952 21.7416 15.8503 21.8453 15.9809 21.9761ZM24.6621 5.33545C23.342 4.01844 21.5534 3.27881 19.6887 3.27881C17.8239 3.27881 16.0354 4.01844 14.7152 5.33545L14.0191 6.03154C13.755 6.29572 13.6066 6.65403 13.6066 7.02763C13.6066 7.40124 13.755 7.75955 14.0191 8.02373C14.2833 8.28791 14.6416 8.43632 15.0152 8.43632C15.3888 8.43632 15.7472 8.28791 16.0113 8.02373L16.7074 7.32763C17.4987 6.53633 18.572 6.09179 19.691 6.09179C20.8101 6.09179 21.8833 6.53633 22.6746 7.32763C23.4659 8.11893 23.9105 9.19216 23.9105 10.3112C23.9105 11.4303 23.4659 12.5035 22.6746 13.2948L19.8492 16.1214C19.088 16.8821 18.0649 17.3232 16.9891 17.3544C15.9134 17.3855 14.8665 17.0044 14.0625 16.289C13.924 16.1658 13.7626 16.0712 13.5875 16.0105C13.4125 15.9497 13.2271 15.9241 13.0421 15.935C12.8572 15.9458 12.6761 15.9931 12.5094 16.0739C12.3426 16.1547 12.1934 16.2676 12.0703 16.4061C11.9472 16.5447 11.8526 16.706 11.7918 16.8811C11.7311 17.0562 11.7054 17.2415 11.7163 17.4265C11.7272 17.6115 11.7744 17.7925 11.8553 17.9593C11.9361 18.126 12.049 18.2752 12.1875 18.3983C13.5281 19.59 15.2734 20.2242 17.0663 20.1713C18.8592 20.1184 20.5641 19.3822 21.832 18.1136L24.6586 15.2882C25.9771 13.9684 26.7181 12.1793 26.7188 10.3137C26.7194 8.44812 25.9797 6.65851 24.6621 5.33779V5.33545Z" fill="#333333"/>
</svg>
