<svg width="32" height="20" viewBox="0 0 32 20" fill="none" xmlns="http://www.w3.org/2000/svg">
<path d="M9.21189 7.45456C9.21189 7.83741 9.25328 8.14783 9.32571 8.37547C9.40848 8.60311 9.51196 8.85144 9.65682 9.12047C9.70855 9.20325 9.72925 9.28602 9.72925 9.35845C9.72925 9.46193 9.66717 9.5654 9.53265 9.66887L8.88078 10.1035C8.78765 10.1655 8.69453 10.1966 8.61175 10.1966C8.50828 10.1966 8.4048 10.1448 8.30133 10.0517C8.15647 9.89651 8.0323 9.73096 7.92883 9.5654C7.82536 9.3895 7.72189 9.1929 7.60807 8.95491C6.80098 9.90686 5.78695 10.3828 4.56598 10.3828C3.69681 10.3828 3.00355 10.1345 2.49653 9.63783C1.98952 9.14116 1.73083 8.47894 1.73083 7.65116C1.73083 6.77165 2.04125 6.05769 2.67243 5.51963C3.30361 4.98157 4.14174 4.71254 5.20751 4.71254C5.55931 4.71254 5.92147 4.74359 6.30431 4.79532C6.68716 4.84706 7.08036 4.92984 7.49425 5.02296V4.26761C7.49425 3.48122 7.32869 2.93282 7.00793 2.61205C6.67681 2.29129 6.11806 2.13608 5.32133 2.13608C4.95917 2.13608 4.58667 2.17747 4.20382 2.2706C3.82098 2.36372 3.44848 2.47754 3.08632 2.6224C2.92077 2.69483 2.7966 2.73622 2.72417 2.75692C2.65174 2.77761 2.6 2.78796 2.55861 2.78796C2.41375 2.78796 2.34132 2.68448 2.34132 2.46719V1.96018C2.34132 1.79462 2.36202 1.67046 2.41375 1.59802C2.46549 1.52559 2.55861 1.45316 2.70348 1.38073C3.06563 1.19448 3.50021 1.03927 4.00723 0.915107C4.51424 0.780593 5.0523 0.718509 5.6214 0.718509C6.85272 0.718509 7.75293 0.997885 8.33237 1.55664C8.90147 2.11539 9.19119 2.96386 9.19119 4.10206V7.45456H9.21189ZM5.01091 9.02734C5.35237 9.02734 5.70417 8.96526 6.07667 8.84109C6.44917 8.71693 6.78029 8.48929 7.05966 8.17887C7.22522 7.98227 7.34938 7.76498 7.41147 7.51665C7.47355 7.26831 7.51494 6.96824 7.51494 6.61644V6.18185C7.21487 6.10942 6.89411 6.04734 6.56299 6.00595C6.23188 5.96456 5.91112 5.94387 5.59035 5.94387C4.89709 5.94387 4.39007 6.07838 4.04862 6.35776C3.70716 6.63713 3.5416 7.03033 3.5416 7.54769C3.5416 8.03401 3.66577 8.39616 3.92445 8.6445C4.17278 8.90318 4.53494 9.02734 5.01091 9.02734ZM13.3197 10.1448C13.1335 10.1448 13.0093 10.1138 12.9265 10.0414C12.8438 9.97929 12.7713 9.83443 12.7093 9.63783L10.2777 1.63941C10.2156 1.43247 10.1845 1.29795 10.1845 1.22552C10.1845 1.05997 10.2673 0.966843 10.4329 0.966843H11.4469C11.6435 0.966843 11.778 0.997885 11.8504 1.07032C11.9332 1.1324 11.9953 1.27726 12.0574 1.47386L13.7957 8.32373L15.4099 1.47386C15.4616 1.26691 15.5237 1.1324 15.6065 1.07032C15.6893 1.00823 15.8341 0.966843 16.0204 0.966843H16.8481C17.0447 0.966843 17.1793 0.997885 17.262 1.07032C17.3448 1.1324 17.4172 1.27726 17.4586 1.47386L19.0935 8.40651L20.8836 1.47386C20.9457 1.26691 21.0181 1.1324 21.0905 1.07032C21.1733 1.00823 21.3078 0.966843 21.4941 0.966843H22.4563C22.6219 0.966843 22.715 1.04962 22.715 1.22552C22.715 1.27726 22.7047 1.329 22.6943 1.39108C22.684 1.45316 22.6633 1.53594 22.6219 1.64976L20.1282 9.64818C20.0661 9.85512 19.9937 9.98964 19.9109 10.0517C19.8282 10.1138 19.6936 10.1552 19.5177 10.1552H18.6279C18.4313 10.1552 18.2968 10.1242 18.214 10.0517C18.1312 9.97929 18.0588 9.84478 18.0174 9.63783L16.4136 2.96386L14.8201 9.62748C14.7684 9.83443 14.7063 9.96894 14.6235 10.0414C14.5407 10.1138 14.3959 10.1448 14.2096 10.1448H13.3197ZM26.6159 10.4242C26.0779 10.4242 25.5398 10.3621 25.0225 10.238C24.5051 10.1138 24.1016 9.97929 23.8325 9.82408C23.667 9.73096 23.5532 9.62748 23.5118 9.53436C23.4704 9.44123 23.4497 9.33776 23.4497 9.24463V8.71693C23.4497 8.49963 23.5325 8.39616 23.6877 8.39616C23.7498 8.39616 23.8118 8.40651 23.8739 8.4272C23.936 8.4479 24.0291 8.48929 24.1326 8.53068C24.4844 8.68588 24.8673 8.81005 25.2708 8.89283C25.6847 8.97561 26.0882 9.017 26.5021 9.017C27.154 9.017 27.661 8.90318 28.0128 8.67554C28.3646 8.4479 28.5509 8.11679 28.5509 7.69255C28.5509 7.40283 28.4577 7.16484 28.2715 6.96824C28.0852 6.77165 27.7334 6.59574 27.2264 6.43019L25.7261 5.96456C24.9707 5.72657 24.412 5.37477 24.0705 4.90914C23.7291 4.45386 23.5532 3.94685 23.5532 3.40879C23.5532 2.97421 23.6463 2.59136 23.8325 2.26025C24.0188 1.92914 24.2671 1.63941 24.5775 1.41177C24.8879 1.17379 25.2398 0.997885 25.6536 0.873718C26.0675 0.749551 26.5021 0.697815 26.9574 0.697815C27.185 0.697815 27.423 0.708162 27.6507 0.739204C27.8886 0.770246 28.1059 0.811635 28.3232 0.853024C28.5302 0.90476 28.7268 0.956496 28.913 1.01858C29.0993 1.08066 29.2441 1.14275 29.3476 1.20483C29.4925 1.28761 29.5959 1.37039 29.658 1.46351C29.7201 1.54629 29.7512 1.66011 29.7512 1.80497V2.29129C29.7512 2.50858 29.6684 2.6224 29.5132 2.6224C29.4304 2.6224 29.2959 2.58101 29.12 2.49823C28.5302 2.22921 27.868 2.09469 27.1333 2.09469C26.5435 2.09469 26.0779 2.18782 25.7571 2.38441C25.4364 2.58101 25.2708 2.88108 25.2708 3.30532C25.2708 3.59504 25.3743 3.84338 25.5812 4.03997C25.7882 4.23657 26.171 4.43317 26.7194 4.60907L28.1887 5.0747C28.9337 5.31268 29.4718 5.6438 29.7925 6.06803C30.1133 6.49227 30.2685 6.97859 30.2685 7.51665C30.2685 7.96158 30.1754 8.36512 29.9995 8.71693C29.8132 9.06873 29.5649 9.37915 29.2441 9.62748C28.9234 9.88616 28.5405 10.0724 28.0956 10.2069C27.63 10.3518 27.1436 10.4242 26.6159 10.4242Z" fill="#808080"/>
<path fill-rule="evenodd" clip-rule="evenodd" d="M28.5715 15.453C25.1673 17.9673 20.2213 19.3021 15.9686 19.3021C10.0086 19.3021 4.6384 17.0982 0.582285 13.4353C0.261521 13.1455 0.551243 12.7523 0.934091 12.98C5.32131 15.5254 10.7329 17.0671 16.3308 17.0671C20.1075 17.0671 24.2567 16.2807 28.0749 14.6666C28.644 14.4079 29.1303 15.0391 28.5715 15.453Z" fill="#FF9900"/>
<path fill-rule="evenodd" clip-rule="evenodd" d="M29.9891 13.8388C29.5546 13.2801 27.1126 13.5698 26.0055 13.7043C25.6744 13.7457 25.6226 13.456 25.9227 13.2387C27.868 11.8728 31.0652 12.266 31.4377 12.7213C31.8102 13.1869 31.3343 16.3842 29.5132 17.9156C29.2338 18.1536 28.9648 18.0294 29.0889 17.719C29.5028 16.6946 30.4237 14.3872 29.9891 13.8388Z" fill="#FF9900"/>
</svg>
