<svg width="32" height="32" viewBox="0 0 32 32" fill="none" xmlns="http://www.w3.org/2000/svg">
<path d="M2.6557 15.9999C2.6557 21.2822 5.72535 25.8466 10.1766 28.01L3.81104 10.569C3.04796 12.2778 2.65426 14.1284 2.6557 15.9999ZM25.0088 15.3265C25.0088 13.6772 24.4164 12.5351 23.9083 11.6461C23.2319 10.5469 22.5981 9.61604 22.5981 8.51682C22.5981 7.29013 23.5282 6.14825 24.8387 6.14825C24.8979 6.14825 24.954 6.15561 25.0119 6.15891C22.6375 3.98383 19.4744 2.65582 16.0002 2.65582C11.3383 2.65582 7.23668 5.04775 4.85059 8.67069C5.16368 8.68009 5.45899 8.68644 5.70935 8.68644C7.10515 8.68644 9.26576 8.51707 9.26576 8.51707C9.98512 8.47467 10.0699 9.53123 9.35159 9.61629C9.35159 9.61629 8.62842 9.70136 7.824 9.74351L12.6835 24.1979L15.6041 15.4395L13.5248 9.74325C12.8062 9.7011 12.1254 9.61604 12.1254 9.61604C11.4063 9.57389 11.4906 8.47441 12.2097 8.51682C12.2097 8.51682 14.4135 8.68618 15.7247 8.68618C17.1203 8.68618 19.2811 8.51682 19.2811 8.51682C20.001 8.47441 20.0856 9.53098 19.3667 9.61604C19.3667 9.61604 18.6423 9.7011 17.8394 9.74325L22.6618 24.0882L23.9926 19.6403C24.5698 17.7946 25.0088 16.4688 25.0088 15.3265Z" fill="#00749A"/>
<path d="M16.2344 17.1672L12.2305 28.8013C13.4546 29.162 14.7241 29.3452 16.0002 29.3452C17.5542 29.3452 19.0445 29.0763 20.4317 28.5887C20.3945 28.5305 20.3627 28.469 20.3367 28.4049L16.2344 17.1672ZM27.7095 9.59753C27.7669 10.0226 27.7994 10.4791 27.7994 10.9697C27.7994 12.3239 27.5465 13.8461 26.7848 15.7495L22.7086 27.5347C26.6758 25.2212 29.3443 20.9231 29.3443 15.9999C29.3478 13.7621 28.7855 11.5597 27.7095 9.59753Z" fill="#00749A"/>
<path d="M16.0003 0.444702C7.42306 0.444702 0.44455 7.42269 0.44455 15.9999C0.44455 24.5781 7.4228 31.5561 16.0003 31.5561C24.5772 31.5561 31.5567 24.5783 31.5567 15.9999C31.5565 7.42269 24.5772 0.444702 16.0003 0.444702ZM16.0003 30.8428C7.81638 30.8428 1.15781 24.1842 1.15781 15.9999C1.15781 7.81627 7.81613 1.15822 16.0003 1.15822C24.1839 1.15822 30.8419 7.81627 30.8419 15.9999C30.8419 24.1842 24.1836 30.8428 16.0003 30.8428Z" fill="#00749A"/>
</svg>
