<svg width="256" height="254" viewBox="0 0 256 254" fill="none" xmlns="http://www.w3.org/2000/svg">
<g clip-path="url(#clip0_360_55)">
<mask id="mask0_360_55" style="mask-type:luminance" maskUnits="userSpaceOnUse" x="0" y="0" width="256" height="254">
<path d="M180.828 252.605C182.857 253.396 185.027 253.761 187.203 253.678C189.38 253.594 191.515 253.064 193.478 252.119L245.979 226.857C248.683 225.555 250.964 223.516 252.561 220.975C254.157 218.434 255.004 215.494 255.004 212.493V41.1969C255.004 38.196 254.157 35.256 252.561 32.7151C250.964 30.1742 248.683 28.1357 245.979 26.8339L193.479 1.57093C190.512 0.143437 187.175 -0.326577 183.93 0.225949C180.684 0.778475 177.691 2.32621 175.364 4.65493L74.8569 96.3499L31.0769 63.1179C29.1021 61.6189 26.6648 60.8584 24.1879 60.9686C21.711 61.0787 19.3508 62.0525 17.5169 63.7209L3.47588 76.4939C-1.15412 80.7049 -1.15912 87.9889 3.46388 92.2069L41.4309 126.845L3.46388 161.482C-1.15912 165.701 -1.15412 172.984 3.47588 177.196L17.5169 189.968C19.3507 191.637 21.7108 192.61 24.1877 192.721C26.6646 192.831 29.1019 192.071 31.0769 190.572L74.8569 157.339L175.364 249.034C176.918 250.59 178.779 251.807 180.828 252.605M191.292 68.9559L115.03 126.845L191.292 184.733V68.9559Z" fill="white"/>
</mask>
<g mask="url(#mask0_360_55)">
<path d="M246.135 26.8729L193.593 1.57487C190.626 0.146222 187.288 -0.324793 184.041 0.227005C180.794 0.778804 177.799 2.32613 175.47 4.65487L3.466 161.482C-1.16 165.701 -1.154 172.984 3.478 177.196L17.528 189.968C19.3635 191.637 21.7251 192.611 24.2034 192.721C26.6817 192.831 29.1205 192.071 31.097 190.572L238.229 33.4359C245.178 28.1649 255.159 33.1209 255.159 41.8429V41.2329C255.159 38.2326 254.312 35.2932 252.716 32.7529C251.119 30.2126 248.838 28.1744 246.135 26.8729Z" fill="#0065A9"/>
</g>
<mask id="mask1_360_55" style="mask-type:luminance" maskUnits="userSpaceOnUse" x="0" y="0" width="256" height="254">
<path d="M180.828 252.605C182.857 253.396 185.027 253.761 187.203 253.678C189.38 253.594 191.515 253.064 193.478 252.119L245.979 226.857C248.683 225.555 250.964 223.516 252.561 220.975C254.157 218.434 255.004 215.494 255.004 212.493V41.1969C255.004 38.196 254.157 35.256 252.561 32.7151C250.964 30.1742 248.683 28.1357 245.979 26.8339L193.479 1.57093C190.512 0.143437 187.175 -0.326577 183.93 0.225949C180.684 0.778475 177.691 2.32621 175.364 4.65493L74.8569 96.3499L31.0769 63.1179C29.1021 61.6189 26.6648 60.8584 24.1879 60.9686C21.711 61.0787 19.3508 62.0525 17.5169 63.7209L3.47588 76.4939C-1.15412 80.7049 -1.15912 87.9889 3.46388 92.2069L41.4309 126.845L3.46388 161.482C-1.15912 165.701 -1.15412 172.984 3.47588 177.196L17.5169 189.968C19.3507 191.637 21.7108 192.61 24.1877 192.721C26.6646 192.831 29.1019 192.071 31.0769 190.572L74.8569 157.339L175.364 249.034C176.918 250.59 178.779 251.807 180.828 252.605M191.292 68.9559L115.03 126.845L191.292 184.733V68.9559Z" fill="white"/>
</mask>
<g mask="url(#mask1_360_55)">
<path d="M246.135 226.816L193.593 252.114C190.626 253.542 187.288 254.013 184.041 253.461C180.794 252.91 177.799 251.362 175.47 249.034L3.466 92.207C-1.16 87.989 -1.154 80.705 3.478 76.494L17.528 63.721C19.3636 62.0522 21.7252 61.0784 24.2036 60.9682C26.6819 60.8581 29.1206 61.6186 31.097 63.118L238.229 220.253C245.178 225.524 255.159 220.568 255.159 211.845V212.456C255.159 215.456 254.312 218.396 252.716 220.936C251.119 223.476 248.838 225.514 246.135 226.816Z" fill="#007ACC"/>
</g>
<mask id="mask2_360_55" style="mask-type:luminance" maskUnits="userSpaceOnUse" x="0" y="0" width="256" height="254">
<path d="M180.828 252.605C182.857 253.396 185.027 253.761 187.203 253.678C189.38 253.594 191.515 253.064 193.478 252.119L245.979 226.857C248.683 225.555 250.964 223.516 252.561 220.975C254.157 218.434 255.004 215.494 255.004 212.493V41.1969C255.004 38.196 254.157 35.256 252.561 32.7151C250.964 30.1742 248.683 28.1357 245.979 26.8339L193.479 1.57093C190.512 0.143437 187.175 -0.326577 183.93 0.225949C180.684 0.778475 177.691 2.32621 175.364 4.65493L74.8569 96.3499L31.0769 63.1179C29.1021 61.6189 26.6648 60.8584 24.1879 60.9686C21.711 61.0787 19.3508 62.0525 17.5169 63.7209L3.47588 76.4939C-1.15412 80.7049 -1.15912 87.9889 3.46388 92.2069L41.4309 126.845L3.46388 161.482C-1.15912 165.701 -1.15412 172.984 3.47588 177.196L17.5169 189.968C19.3507 191.637 21.7108 192.61 24.1877 192.721C26.6646 192.831 29.1019 192.071 31.0769 190.572L74.8569 157.339L175.364 249.034C176.918 250.59 178.779 251.807 180.828 252.605M191.292 68.9559L115.03 126.845L191.292 184.733V68.9559Z" fill="white"/>
</mask>
<g mask="url(#mask2_360_55)">
<path d="M193.428 252.134C190.46 253.562 187.121 254.032 183.874 253.48C180.627 252.927 177.632 251.38 175.303 249.051C181.184 254.931 191.241 250.766 191.241 242.448V11.2729C191.241 2.95492 181.184 -1.21008 175.303 4.67092C177.632 2.342 180.627 0.794275 183.874 0.241787C187.121 -0.310701 190.46 0.159345 193.428 1.58692L245.961 26.8499C248.666 28.1507 250.949 30.189 252.546 32.73C254.144 35.271 254.991 38.2115 254.991 41.2129V212.51C254.991 218.635 251.481 224.219 245.961 226.873L193.428 252.134Z" fill="#1F9CF0"/>
</g>
</g>
<defs>
<clipPath id="clip0_360_55">
<rect width="256" height="254" fill="white"/>
</clipPath>
</defs>
</svg>
