<svg width="256" height="268" viewBox="0 0 256 268" fill="none" xmlns="http://www.w3.org/2000/svg">
<g clip-path="url(#clip0_360_85)">
<path d="M16.092 11.5379L164.09 0.607934C182.269 -0.952066 186.94 0.0999346 198.37 8.40893L245.613 41.6909C253.406 47.4139 256 48.9749 256 55.2069V237.734C256 249.173 251.845 255.939 237.304 256.974L65.44 267.378C54.527 267.895 49.33 266.335 43.615 259.051L8.826 213.814C2.586 205.487 0 199.254 0 191.97V29.7259C0 20.3739 4.155 12.5729 16.092 11.5379Z" fill="white"/>
<path d="M164.09 0.607934L16.092 11.5379C4.155 12.5729 0 20.3739 0 29.7259V191.971C0 199.255 2.585 205.487 8.826 213.814L43.615 259.051C49.33 266.335 54.527 267.895 65.44 267.378L237.304 256.974C251.836 255.939 256 249.173 256 237.734V55.2069C256 49.2959 253.664 47.5929 246.79 42.5469L245.605 41.6909L198.37 8.40893C186.94 0.0999346 182.27 -0.952066 164.09 0.607934ZM69.327 52.2199C55.294 53.1649 52.111 53.3789 44.141 46.8969L23.876 30.7779C21.816 28.6919 22.85 26.0879 28.039 25.5709L170.313 15.1759C182.26 14.1329 188.483 18.2959 193.155 21.9339L217.556 39.6139C218.599 40.1389 221.194 43.2509 218.073 43.2509L71.146 52.0949L69.327 52.2199ZM52.967 236.174V81.2219C52.967 74.4549 55.044 71.3349 61.267 70.8089L230.02 60.9299C235.744 60.4129 238.33 64.0499 238.33 70.8089V224.726C238.33 231.493 237.286 237.216 227.943 237.734L66.456 247.095C57.113 247.612 52.967 244.501 52.967 236.174ZM212.377 89.5299C213.411 94.2109 212.377 98.8919 207.696 99.4269L199.913 100.969V215.373C193.155 219.01 186.932 221.088 181.733 221.088C173.425 221.088 171.347 218.484 165.124 210.692L114.226 130.613V208.089L130.326 211.735C130.326 211.735 130.326 221.097 117.337 221.097L81.523 223.174C80.48 221.088 81.523 215.89 85.153 214.856L94.504 212.261V109.823L81.524 108.771C80.48 104.091 83.074 97.3319 90.35 96.8059L128.776 94.2209L181.734 175.334V103.574L168.236 102.022C167.193 96.2889 171.347 92.1259 176.536 91.6179L212.377 89.5299Z" fill="black"/>
</g>
<defs>
<clipPath id="clip0_360_85">
<rect width="256" height="268" fill="white"/>
</clipPath>
</defs>
</svg>
