<svg width="50" height="38" viewBox="0 0 50 38" fill="none" xmlns="http://www.w3.org/2000/svg">
<path d="M11.3637 37.5098V18.1914L5.37246 12.7104L0 9.66876V34.1006C0 35.9869 1.52832 37.5098 3.40918 37.5098H11.3637Z" fill="#4285F4"/>
<path d="M38.6362 37.5098H46.5907C48.4772 37.5098 49.9999 35.9812 49.9999 34.1006V9.66895L43.9147 13.1527L38.6362 18.1914V37.5098Z" fill="#34A853"/>
<path d="M11.3636 18.1914L10.5483 10.6432L11.3636 3.41876L24.9999 13.6461L38.6362 3.41876L39.5481 10.2531L38.6362 18.1914L24.9999 28.4188L11.3636 18.1914Z" fill="#EA4335"/>
<path d="M38.6362 3.41875V18.1914L49.9999 9.66875V5.12324C49.9999 0.907423 45.1874 -1.4959 41.8183 1.03242L38.6362 3.41875Z" fill="#FBBC04"/>
<path d="M0 9.66878L5.22637 13.5887L11.3637 18.1914V3.41878L8.18164 1.03245C4.80664 -1.49606 0 0.907451 0 5.12308V9.66858V9.66878Z" fill="#C5221F"/>
</svg>
