<svg width="257" height="256" viewBox="0 0 257 256" fill="none" xmlns="http://www.w3.org/2000/svg">
<g clip-path="url(#clip0_360_48)">
<path d="M37.6537 200.406C36.1539 201.688 34.328 202.528 32.379 202.835C30.43 203.141 28.4343 202.9 26.6137 202.14L7.22675 194.006C5.29309 193.199 3.6398 191.841 2.47318 190.101C1.30656 188.361 0.678284 186.315 0.666748 184.22L0.666748 70.4601C0.678088 68.3648 1.30627 66.3192 2.4729 64.5787C3.63953 62.8382 5.29293 61.4798 7.22675 60.6731L26.6137 52.6731C28.4342 51.9128 30.4299 51.6722 32.3789 51.9782C34.3278 52.2841 36.1538 53.1246 37.6537 54.4061L41.9997 58.0061C41.1183 57.3724 40.0789 56.9945 38.9963 56.914C37.9137 56.8336 36.8299 57.0538 35.8645 57.5503C34.8991 58.0468 34.0896 58.8003 33.5253 59.7278C32.9611 60.6552 32.6639 61.7205 32.6667 62.8061V191.873C32.6639 192.959 32.9611 194.024 33.5253 194.951C34.0896 195.879 34.8991 196.632 35.8645 197.129C36.8299 197.625 37.9137 197.846 38.9963 197.765C40.0789 197.685 41.1183 197.307 41.9997 196.673L37.6537 200.406Z" fill="#52218A"/>
<path d="M7.22675 194.006C5.29309 193.199 3.6398 191.841 2.47318 190.101C1.30656 188.36 0.678284 186.315 0.666748 184.22L0.666748 183.34C0.679888 184.571 1.06172 185.77 1.76298 186.782C2.46423 187.795 3.45272 188.573 4.60088 189.018C5.74903 189.463 7.00416 189.554 8.20429 189.278C9.40442 189.003 10.4945 188.374 11.3337 187.473L176.667 4.67295C179.008 2.34319 182.013 0.795174 185.27 0.241386C188.526 -0.312402 191.874 0.15518 194.854 1.57995L247.6 26.966C250.317 28.2723 252.609 30.3196 254.214 32.8721C255.818 35.4245 256.668 38.3783 256.667 41.393V42.006C256.665 40.0935 256.121 38.2208 255.097 36.6054C254.073 34.99 252.612 33.6982 250.884 32.8801C249.155 32.0619 247.23 31.751 245.332 31.9833C243.433 32.2157 241.64 32.982 240.16 34.193L41.9997 196.673L37.6537 200.406C36.1539 201.688 34.328 202.528 32.379 202.834C30.43 203.141 28.4343 202.9 26.6137 202.14L7.22675 194.006Z" fill="#6C33AF"/>
<path d="M7.22675 60.6729C5.29293 61.4796 3.63953 62.838 2.4729 64.5785C1.30627 66.319 0.678088 68.3646 0.666748 70.4599L0.666748 71.3399C0.679691 70.1086 1.06138 68.9094 1.76256 67.8971C2.46374 66.8848 3.45222 66.1059 4.60042 65.6609C5.74862 65.2159 7.00383 65.1253 8.20405 65.4007C9.40427 65.6761 10.4944 66.3049 11.3337 67.2059L176.667 250.006C179.008 252.336 182.013 253.884 185.269 254.438C188.526 254.992 191.874 254.525 194.854 253.1L247.6 227.713C250.317 226.407 252.609 224.359 254.214 221.807C255.818 219.254 256.668 216.301 256.667 213.286V212.673C256.665 214.585 256.121 216.458 255.097 218.073C254.073 219.689 252.612 220.981 250.884 221.799C249.155 222.617 247.23 222.928 245.332 222.696C243.433 222.463 241.64 221.697 240.16 220.486L41.9997 58.0059L37.6537 54.2729C36.1405 53.0133 34.3081 52.1971 32.3596 51.9147C30.411 51.6323 28.4223 51.8948 26.6137 52.6729L7.22675 60.6729Z" fill="#854CC7"/>
<path d="M194.854 253.1C191.874 254.525 188.526 254.992 185.269 254.438C182.013 253.884 179.008 252.336 176.667 250.006C177.981 251.31 179.652 252.197 181.469 252.554C183.286 252.912 185.168 252.724 186.878 252.014C188.588 251.304 190.05 250.104 191.08 248.566C192.11 247.027 192.662 245.218 192.667 243.366V11.366C192.673 9.50971 192.128 7.69332 191.102 6.14642C190.076 4.59951 188.615 3.39153 186.902 2.67518C185.19 1.95884 183.303 1.76629 181.482 2.12188C179.66 2.47748 177.984 3.36524 176.667 4.67295C179.008 2.34319 182.013 0.795174 185.27 0.241386C188.526 -0.312402 191.874 0.15518 194.854 1.57995L247.6 26.94C250.317 28.2462 252.609 30.2934 254.213 32.8456C255.817 35.3979 256.668 38.3514 256.667 41.366V213.313C256.668 216.328 255.818 219.281 254.214 221.834C252.609 224.386 250.317 226.434 247.6 227.74L194.854 253.1Z" fill="#B179F1"/>
</g>
<defs>
<clipPath id="clip0_360_48">
<rect width="256" height="256" fill="white" transform="translate(0.666748)"/>
</clipPath>
</defs>
</svg>
