<svg width="48" height="46" viewBox="0 0 48 46" fill="none" xmlns="http://www.w3.org/2000/svg">
<path fill-rule="evenodd" clip-rule="evenodd" d="M24 -0.00665283C10.9738 -0.00665283 0.410889 10.5539 0.410889 23.5824C0.410889 34.0051 7.16987 42.8469 16.5425 45.9664C17.721 46.1851 18.1539 45.4547 18.1539 44.8316C18.1539 44.2691 18.132 42.4109 18.1218 40.4398C11.5593 41.8668 10.1746 37.6566 10.1746 37.6566C9.10151 34.9301 7.55542 34.2051 7.55542 34.2051C5.4148 32.741 7.71675 32.7715 7.71675 32.7715C10.0851 32.9375 11.3328 35.2023 11.3328 35.2023C13.4367 38.8078 16.8511 37.7656 18.1972 37.1633C18.4089 35.6387 19.0203 34.5976 19.6949 34.0086C14.4554 33.4129 8.94722 31.3898 8.94722 22.3512C8.94722 19.7758 9.86909 17.6715 11.3781 16.0191C11.1328 15.4254 10.3253 13.0262 11.6062 9.77694C11.6062 9.77694 13.5867 9.14296 18.0945 12.1949C19.9765 11.6719 21.9949 11.409 24 11.4C26.0039 11.409 28.0234 11.6711 29.9089 12.1941C34.4113 9.14218 36.3894 9.77616 36.3894 9.77616C37.6734 13.025 36.866 15.4246 36.621 16.0183C38.1335 17.6707 39.0488 19.775 39.0488 22.3504C39.0488 31.4105 33.5304 33.4051 28.2777 33.9894C29.1242 34.7215 29.8781 36.1574 29.8781 38.3578C29.8781 41.5141 29.8507 44.0543 29.8507 44.8312C29.8507 45.459 30.2757 46.1945 31.471 45.9629C40.8382 42.8402 47.5894 34.0012 47.5894 23.5824C47.589 10.5547 37.0273 -0.00665283 24 -0.00665283Z" fill="#DADADA"/>
<path d="M9.3453 33.8617C9.29335 33.9789 9.10898 34.0141 8.94101 33.934C8.76913 33.8574 8.67343 33.6977 8.7289 33.5801C8.77968 33.459 8.96444 33.4258 9.13515 33.5066C9.30702 33.5836 9.40468 33.7449 9.34491 33.8621L9.3453 33.8617ZM10.3008 34.9277C10.1887 35.032 9.96874 34.9836 9.81952 34.8184C9.66483 34.6543 9.63593 34.4344 9.75038 34.3285C9.86679 34.2246 10.0801 34.2738 10.2348 34.4379C10.3887 34.6043 10.4191 34.8223 10.3012 34.9281L10.3008 34.9277ZM11.2312 36.2859C11.0867 36.3867 10.85 36.2926 10.7039 36.0828C10.5594 35.8727 10.5594 35.6207 10.7078 35.5203C10.8535 35.4195 11.0867 35.5105 11.2351 35.7184C11.3789 35.9312 11.3789 36.1836 11.2312 36.2859ZM12.5051 37.5988C12.3762 37.7414 12.1004 37.7031 11.8988 37.509C11.693 37.3187 11.6355 37.048 11.7648 36.9059C11.8961 36.7629 12.173 36.8027 12.3758 36.9957C12.5816 37.1855 12.6437 37.4566 12.5059 37.5984L12.5051 37.5988ZM14.2629 38.3609C14.2055 38.5457 13.9406 38.6297 13.673 38.5508C13.4062 38.4699 13.2316 38.2539 13.2863 38.0672C13.341 37.8809 13.6078 37.7937 13.8769 37.8777C14.1437 37.9582 14.3184 38.173 14.2629 38.3609ZM16.1937 38.5019C16.2004 38.6965 15.9738 38.8574 15.6937 38.8613C15.4113 38.868 15.1828 38.7102 15.1801 38.5187C15.1801 38.3223 15.4019 38.1633 15.684 38.1578C15.9641 38.1527 16.1941 38.309 16.1941 38.5016L16.1937 38.5019ZM17.9898 38.1965C18.0234 38.3859 17.8285 38.5809 17.55 38.6328C17.2766 38.6836 17.0226 38.5656 16.9875 38.3777C16.9539 38.1832 17.1523 37.9883 17.4258 37.9379C17.7047 37.8898 17.9547 38.0039 17.9898 38.1965Z" fill="#DADADA"/>
</svg>
